<svg xmlns="http://www.w3.org/2000/svg" viewBox="0 0 100 100"  fill="#fff" xmlns:v="https://vecta.io/nano"><path d="M91.04 53.69l-.02 34.74c0 .58-.12 1.25-.43 1.72-.57.87-1.48.84-2.42.57l-17.8-5.07-6.68-1.87c-.41-.11-.89-.12-1.29-.01l-24.31 6.84c-.7.19-1.54.2-2.24.01L10.99 83.6c-1.67-.47-2.01-.93-2.01-2.67l.03-69.28c0-.68.26-1.46.66-2.01.5-.7 1.35-.57 2.13-.35l17.8 5.07 6.87 1.92c.37.1.83.06 1.2-.05l24.3-6.84c.7-.19 1.54-.17 2.24.02l24.86 7.01c1.58.45 1.96.94 1.96 2.61l.01 34.66zM61.11 13.57l-.8.18-20.4 5.77c-.78.22-1.05.52-1.05 1.36l.02 64.84c0 .24.05.48.07.75l.44-.11 20.68-5.84c.81-.23 1.1-.54 1.1-1.42l-.02-64.65-.04-.88zm26.12 72.94v-.98l.03-64.83c0-.68-.21-.93-.85-1.11l-17.89-5.07-3.55-.96-.03 65.74c0 .71.21 1 .89 1.18l6.03 1.69 15.37 4.34zM12.8 13.53l-.02 65.91c0 .59.19.82.76.97l12.61 3.56 8.91 2.53v-9.05l.03-56.73c0-.71-.22-.99-.9-1.18l-9.46-2.66-11.93-3.35zm44.7 8.88c-.01.88-.45 1.5-1.27 1.74l-11.4 3.25c-.96.27-1.95-.35-2.22-1.24-.3-1.01.14-2.05 1.15-2.34l11.5-3.27c1.17-.34 2.25.64 2.24 1.86zm-.01 52.09c0 .93-.46 1.53-1.33 1.78l-11.31 3.21c-.95.26-1.97-.33-2.24-1.21-.33-1.04.15-2.08 1.22-2.39l11.41-3.24c1.19-.33 2.25.61 2.25 1.85zm.01-27.71c-.01.88-.44 1.49-1.26 1.73l-11.3 3.21c-1.13.31-2.13-.32-2.35-1.29-.25-1.12.27-2.01 1.45-2.35l10.85-3.07c1.5-.41 2.62.37 2.61 1.77zM44.47 61.05c-.96.01-1.73-.59-1.89-1.41-.21-1.06.26-1.94 1.32-2.26l5.84-1.66 5.38-1.5c1.05-.28 2.03.25 2.31 1.19.3 1-.14 2.04-1.15 2.34l-11.49 3.27c-.12.03-.26.02-.32.03zm.05 9.24c-1.06-.01-1.81-.6-1.96-1.43-.19-1.03.25-1.88 1.26-2.2l5.19-1.49 5.94-1.67c1.19-.32 2.2.18 2.48 1.17.31 1.11-.22 2.06-1.46 2.42L45.03 70.2c-.21.06-.44.07-.51.09zm39.04-4.85V77.3c0 1.81-.99 2.55-2.75 2.06l-10.48-2.95c-1.32-.37-1.72-.9-1.72-2.28V50.41c0-1.77.97-2.5 2.71-2.02l10.66 3.01c1.18.34 1.57.87 1.57 2.09l.01 11.95zM72.33 52.58v3.13l.01 16.5c0 .32.17.86.38.92l7.09 2.02V54.69l-7.48-2.11zm11.24-27.41c.01 1.61-1.04 2.54-2.25 2.21l-11.4-3.24c-1.07-.31-1.55-1.35-1.22-2.38.29-.93 1.31-1.48 2.33-1.19l11.03 3.13c.93.26 1.49.83 1.51 1.47z"/><path d="M70.77 29.75l3.4.95 7.95 2.27c.95.27 1.46.86 1.45 1.88-.01.89-.46 1.47-1.28 1.71-.38.11-.84.1-1.22 0l-11.01-3.12c-1.14-.33-1.62-1.16-1.42-2.26.16-.82.92-1.42 2.13-1.43zM70.8 39l3.54.99 7.78 2.22c1.07.31 1.51.98 1.44 1.99-.06.88-.68 1.57-1.57 1.7-.27.04-.58 0-.85-.08l-11.13-3.14c-1.07-.31-1.57-1.17-1.38-2.22.17-.86.96-1.49 2.17-1.46zm-54.33-4.42V22.72c0-1.77.98-2.53 2.67-2.06l10.57 2.98c1.33.38 1.7.9 1.71 2.29v23.63c0 1.83-1 2.59-2.73 2.1l-10.47-2.97c-1.42-.41-1.75-.85-1.75-2.34V34.58zm3.74 10.77l7.48 2.11-.01-19.65c0-.31-.18-.84-.39-.9l-7.08-2.02v20.46zM31.4 77.71c-.02 1.23-1.09 2.12-2.3 1.78l-11.31-3.21c-1.08-.32-1.57-1.31-1.28-2.36.27-.97 1.3-1.52 2.39-1.21l11.03 3.13c1.06.3 1.49.9 1.47 1.87z"/><path d="M31.41 68.44c-.01 1.28-1.08 2.14-2.39 1.78L17.8 67.03c-1.13-.33-1.62-1.37-1.27-2.44.3-.9 1.32-1.42 2.36-1.14l11.13 3.15c.9.28 1.39.88 1.39 1.84zm0-9.25c-.01 1.36-1.12 2.14-2.57 1.74l-10.85-3.07c-1.22-.36-1.79-1.3-1.48-2.41.28-1.02 1.29-1.54 2.46-1.22l10.94 3.1c1.04.31 1.51.92 1.5 1.86z"/></svg>