<svg xmlns="http://www.w3.org/2000/svg" viewBox="0 0 100 100"  fill="#fff" xmlns:v="https://vecta.io/nano"><path d="M76.88 59.99v-2.1c-.01-.34.2-.33.44-.33h7.59c.64 0 .65 0 .65-.63V11.72h-2.43v43.29c-.79 0-1.54.02-2.28-.02-.09 0-.22-.32-.22-.49l-.01-5.43v-9.7l.01-9.6-.01-9.6.01-7.87c0-.49-.15-.61-.63-.61H14.31l-.03.54-.01 44.71c0 .5.16.65.64.62a12.36 12.36 0 0 1 1.49.01c.38.02.54-.1.54-.51l-.01-7.97V14.12l2.23.02c.09 0 .24.26.24.41l.02 2.5-.01 39.9c0 .56.05.62.65.62l10.08-.01c.64 0 .65 0 .65.63v1.39c.02.37-.12.46-.47.46-2.35-.01-4.71 0-7.06 0-2.99 0-5.99-.02-8.98 0-1.36.01-2.55-1.06-2.55-2.56V12.01c0-1.19.53-2.07 1.59-2.59.37-.18.82-.27 1.23-.27l70.72-.01c1.59 0 2.56.79 3.02 2.23.06.18.02.38.02.57l.01 45.43c.01 1.18-.73 2.28-1.77 2.58-.17.05-.34.1-.51.1H77.3c-.12-.03-.24-.05-.42-.06zm-32.1-4.3l.03-.5.01-11.19c0-.34-.07-.56-.39-.76-1.65-1.04-2.89-2.47-3.75-4.2a9.33 9.33 0 0 1-.95-3.41c-.3-3.49.87-6.38 3.47-8.7 1.15-1.03 2.49-1.76 3.97-2.13 1.55-.39 3.13-.42 4.72-.1a9.83 9.83 0 0 1 5.18 2.83c1.12 1.14 1.9 2.47 2.39 4.01.51 1.61.63 3.24.32 4.87-.54 2.87-2.05 5.15-4.5 6.77-.37.24-.5.49-.49.92l.02 10.37c0 .48-.15.61-.6.58-.49-.04-.99-.03-1.49-.01-.37.02-.49-.11-.49-.49l.01-9.31.02-10.56c.02-1.23-1.45-2.74-2.84-2.5-.89.15-2.06 1.18-2.05 2.35l.01 26.5c0 1-.72 1.67-1.61 1.44-.27-.07-.6-.29-.73-.53l-3.63-7.39c-.43-.86-.89-1.72-1.44-2.52-.79-1.15-2.13-1.1-2.92.06-.17.26-.16.47.01.78.42.8.81 1.62 1.1 2.47l1.56 4.91 2.33 8.36c.35 1.48 1.41 2.48 2.23 3.64l3.35 4.52 2.06 2.71c.23.28.33.55.32.9v2.55l.59.03 17.76.01c.7 0 .7 0 .7-.68l-.01-1.54c-.05-1.12.29-2.17.57-3.23l.67-2.71.73-3.14.48-3.84.19-12.81c.01-1.04-.81-2.2-2.38-2.44v-2.72l1.52.36c1.68.56 2.65 1.79 3.03 3.47.17.74.19 1.52.19 2.28l-.03 8.69a61.06 61.06 0 0 1-.41 5.73c-.2 1.59-.58 3.15-.92 4.72l-1.09 4.86c-.16.93-.09 1.91-.09 2.87 0 .12.2.31.34.35.83.23 1.55.6 1.89 1.44.17.41.29.86.3 1.29l.01 4.37c0 .6-.06.64-.67.64-.46 0-.93-.03-1.39.01-.4.03-.53-.11-.52-.51l.01-4.13v-.51H47.41l-.02.5v3.99c0 .65-.02.67-.69.67h-1.84l-.05-.52v-4.61c0-1.2.72-2.26 1.94-2.52.45-.1.54-.34.58-.77.09-.93-.2-1.66-.77-2.4l-6.51-8.67c-.33-.44-.48-1.03-.64-1.57l-1.18-4.33-1.48-5.37-1.76-5.25c-.14-.39-.47-.7-.64-1.08-.65-1.47-.02-3.37 1.36-4.17.81-.47 1.66-.78 2.6-.79 1.58-.02 2.73.79 3.71 1.96.82.97 1.18 2.18 1.76 3.28l.88 1.62c.04-.06.08-.06.12-.07zm0-15.47l.03-.65v-4.85c0-.98.26-1.89.72-2.75 1.07-1.99 3.8-3.1 6.24-2.25 1.98.69 3.3 2.46 3.4 4.47l.05 5.47c0 .17.02.33.04.55 2.83-2.83 3.45-7.46.25-10.8-3.23-3.38-7.99-3.22-11.05.05-3.22 3.44-2.39 8.14.32 10.76zm25.72-5.65c-.93 0-1.74-.01-2.56 0-.32 0-.36-.18-.38-.43l-.26-2.37c-.39-2.64-1.42-5.03-2.93-7.22a17.76 17.76 0 0 0-7-5.98c-3.02-1.46-6.22-1.99-9.55-1.62-2.58.29-4.99 1.11-7.22 2.47-3.28 2.01-5.69 4.79-7.18 8.32-.51 1.22-.8 2.54-1.09 3.84-.21.95-.27 1.94-.41 2.94H29.6c-.31-4.84 2.17-12.65 9.21-17.13 7.43-4.73 16.43-4.32 23.16.6 5.54 4.06 8.36 9.64 8.53 16.58zm-5.22.13c.05 1.55-.17 3.06-.63 4.53-.38 1.21-.9 2.34-1.63 3.38-.07.1-.37.17-.47.11l-1.51-1.06c-.22-.16-.25-.3-.1-.55 1.01-1.61 1.55-3.36 1.78-5.25.28-2.3-.12-4.46-1.03-6.56-1.21-2.82-3.27-4.87-5.92-6.31-1.3-.7-2.73-1.1-4.23-1.28a12.47 12.47 0 0 0-4.56.27c-1.57.38-3.05 1.02-4.35 2-1.76 1.31-3.2 2.89-4.14 4.91-1.02 2.19-1.51 4.46-1.23 6.89.22 1.92.78 3.7 1.8 5.34.16.25.13.39-.1.55l-1.45 1.03c-.22.15-.39.15-.55-.11-1.01-1.68-1.72-3.48-2.04-5.42-.31-1.86-.3-3.73.06-5.57.44-2.21 1.32-4.25 2.68-6.07 1.72-2.3 3.89-4.04 6.55-5.12 1.9-.77 3.89-1.19 5.95-1.08 1.21.07 2.43.16 3.6.44 1.93.45 3.7 1.29 5.31 2.49 1.64 1.23 3 2.68 4.06 4.43.82 1.36 1.47 2.8 1.76 4.36l.53 3.63a.59.59 0 0 1-.14.02zm-9.03 12.45l-.03-.36V44.8c1.06-.1 1.95.21 2.8.72 1.1.66 1.77 1.65 2.17 2.83.14.41.22.87.22 1.3l.01 6.09c0 .4-.11.55-.52.51-.54-.05-1.09-.05-1.63-.06-.42-.01-.62-.17-.62-.64v-6.09c0-.84-.92-1.94-1.66-2.09-.24-.03-.47-.14-.74-.22zm6.4.27c.97-.05 1.8.24 2.58.66 1.22.67 1.98 1.74 2.4 3.05.14.43.2.9.21 1.36l.02 4.55c.01.42-.15.57-.56.55-.59-.02-1.18-.03-1.77 0-.38.02-.46-.13-.46-.47l.02-4.75c.03-.95-.86-2.27-2.09-2.41-.13-.01-.33-.21-.33-.33l-.02-2.21z"/></svg>