<svg xmlns="http://www.w3.org/2000/svg" viewBox="0 0 100 100"  fill="#fff" xmlns:v="https://vecta.io/nano"><path d="M29.69 81.26l23.07 8.52-3.04.58c-9.39 1.36-18.35.17-26.7-4.56-6.3-3.57-10.29-8.9-12.18-15.89-.49-1.8-.1-2.86 1.75-3.11 6.06-.84 12.1-1.89 18.19-2.31 3.35-.23 6.12 1.89 8.23 4.48 1.35 1.66 2.47 3.49 4.03 5.14l-1.45-7.83c9.66 3.26 17.85 9.53 27.64 11.81.12-.24.23-.48.35-.73l-14.7-7.62c4.26-9.56 10.79-15.87 22.03-15.97l-.24-.68c-.49-.3-.97-.63-1.47-.9-.56-.3-1.14-.55-1.8-1.41 2.73-.67 5.44-1.45 8.2-1.98 1.37-.26 2.22-.74 2.47-2.14l2.88-16.1 2.41-.16C88 47.24 84.44 62.97 73.38 76.9c3.57-1.19 6.03-3 7.37-5.63 2.56-5.01 4.67-10.24 6.94-15.39.33-.76.48-1.59.72-2.39l.84.11c-.09 1.85.06 3.76-.3 5.56-2.77 13.68-15.05 25.79-28.86 27.6-4.65.61-9.64-.33-14.33-1.29-4.63-.95-9.07-2.84-13.59-4.31l-2.19-.72c-.09.28-.19.55-.29.82zm-2.73-25.92l6.24-2.94-10.59 1.41c-1.86.23-2.78-.82-3.3-2.49-1.21-3.89 1.19-9.67 4.91-11.35.96-.43 2.19-.51 3.27-.44l25.07 1.82c1.21.09 2.47-.03 3.61.29 2.48.7 4.76.15 7.05-.69.74-.27 1.51-.44 2.24-.65-9.18 6.87-18.13 14.24-30.26 15.11-2.72.2-5.45.31-8.18.46l-.06-.53zm-.03-8.46c8.23 1.86 16.31 1.16 24.14-1.32l-24.14 1.32zm24.98-13.92c4.31-6.25 7.82-13.28 10.9-20.52 1-2.35 2.58-3.34 5.03-3.3 5.02.07 7.07 3.27 4.73 7.68-3.53 6.65-8.62 11.59-15.88 14.1-1.73.59-3.39 1.44-4.78 2.04zm15.72-17.73l-.67-.43-6.37 9.64c.24.15.47.3.71.46l6.33-9.67z"/></svg>