<svg xmlns="http://www.w3.org/2000/svg" viewBox="0 0 100 100"  fill="#fff" xmlns:v="https://vecta.io/nano"><path d="M76.65 69.56v-2.54l-.27-.07L3.14 47.08 2.06 41.9l30.61-14.15 66.95 14.72-1.22 4.73-12.62 9.25-.36 2.24 1.83.55v2.29l-10.6 8.03zm1.82-5.21v2.08l6.96-5.27V59.9l-1.94-.59.54-3.3 12.65-9.27.92-3.57L33 28.98 4 42.38l.82 3.96 71.67 19.44 1.98-1.43z"/><path d="M36.61 41.97l-13.34-3.3-.44-4.13-1.79-.33.54-1.03 2.98.55.46 4.21 11.21 2.77 2.08-1.15 1.24.79z"/><path d="M21.45 46.43l-9.88-2.48-.89-3.97-1.5-.31.6-1.02 2.56.53.9 4.01 7.92 1.99 10.93-5.2 1.13.85zm29.06-7.55l-14.99-3.45v-4.75l14.99 3.07v5.13zm-13.18-4.19l11.35 2.61v-2.78L37.33 32.2v2.49zm33.3 8.59l-14.99-3.45v-4.75l14.99 3.07v5.13zm-13.17-4.19l11.35 2.61v-2.78L57.46 36.6v2.49zm35.3 8.92l-15-3.45v-4.75l15 3.07v5.13zm-13.18-4.19l11.36 2.61v-2.78l-11.36-2.32v2.49zM66.3 48.2l-1.32-.74 8.91-5.54.37-4.27 1.82.05-.41 4.67zm16.11 9.92l-13.44-3.27 3.27-1.89L61.2 50.1l-2.91 1.37-1.13-.85 3.77-1.77 14.51 3.76-3.21 1.87 10.87 2.64zm-4.98 14.14L2.19 50.76.4 41.6h3.44l.99 4.74L77.69 66.1l-.26 6.16zM3.88 50.05l71.8 20.51.15-3.77L3.31 47.12l.57 2.93z"/></svg>