<?xml version="1.0" encoding="utf-8"?>
<!-- Generator: Adobe Illustrator 23.0.2, SVG Export Plug-In . SVG Version: 6.00 Build 0)  -->
<svg version="1.1" id="Layer_1" xmlns="http://www.w3.org/2000/svg" xmlns:xlink="http://www.w3.org/1999/xlink" x="0px" y="0px"
	 viewBox="0 0 100 100" style="enable-background:new 0 0 100 100;" xml:space="preserve">
<style type="text/css">
	.st0{fill:#FFFFFF;}
</style>
<g>
	<path class="st0" d="M42.3,84.83c6.83,0,13.46-0.16,20.08,0.08c2.71,0.1,3.99-0.68,5.06-3.22c2.17-5.13,3.53-10.33,3.29-15.92
		c-0.02-0.55,0.05-1.13,0.05-1.62c-0.01-2.15,0.84-1.91,1.5-1.92c0.88-0.05,1.34,0.26,1.37,1.76c0.05,2.78,0.39,5.67-0.22,8.34
		c-0.95,4.16-2.61,8.16-3.88,12.25c-0.26,0.85-0.18,1.82-0.18,2.73c0,2.3,0.19,4.61,0.01,6.9c-0.12,1.55-1.28,2.51-2.89,2.52
		c-8.34,0.04-16.68,0.05-25.02,0c-1.82-0.01-3.05-1.28-2.98-3.23c0.08-2.51,0.66-5.01,0.65-7.52c-0.01-1.71-0.51-3.47-1.08-5.11
		c-0.43-1.23-1.18-2.41-2.01-3.44c-5.59-6.96-9.22-15.11-13.76-22.7c-1.73-2.9-0.4-6.7,2.47-8.43c2.88-1.73,6.59-1.01,8.65,1.7
		c0.43,0.56,0.82,1.15,1.56,2.18c0-1.1,0-1.67,0-2.25c0-8.77,0-17.53,0-26.3c0-3.84,2.32-6.42,5.7-6.39
		c3.28,0.03,5.58,2.63,5.59,6.33c0.01,2.86,0,5.71,0,8.76c3.97-1.35,7.16-0.61,9.23,3.09c5.65-1.92,7.96-0.85,10.16,4.25
		c1.96,0.33,3.75,0.33,5.28,0.95c1.95,0.79,2.83,2.6,2.85,4.72c0.03,3.23,0.01,6.45,0.01,9.68c0,1.07-0.21,2.02-1.53,2.02
		c-1.3,0-1.55-0.91-1.55-2c0.01-2.92,0.01-5.84,0-8.77c-0.01-2.14-0.93-3.31-2.55-3.3c-1.55,0.01-2.43,1.11-2.52,3.16
		c-0.01,0.18,0,0.36-0.02,0.54c-0.18,1.93-0.46,2.04-1.72,2.13c-1.02-0.02-1.27-1.44-1.37-2.13c-0.23-1.67-0.08-3.4-0.09-5.1
		c-0.02-2.56-1.19-3.96-3.27-3.92c-2,0.04-3.12,1.41-3.15,3.87c-0.02,1.58-0.02,3.17,0,4.75c0.01,1.15-0.27,2.22-1.57,2.24
		c-1.29,0.02-1.62-0.99-1.61-2.18c0.04-2.56,0.03-5.11,0.01-7.67c-0.02-2.37-1.43-3.94-3.41-3.88c-1.92,0.06-3.17,1.58-3.18,3.89
		c-0.01,2.56-0.01,5.11,0,7.67c0.01,1.2,0.02,2.55-1.57,2.57c-1.57,0.02-1.64-1.3-1.64-2.52c0.01-7.67,0.01-15.34,0-23.01
		c0-1.88-0.78-2.86-2.28-2.93c-1.42-0.06-2.33,0.61-2.57,2.03c-0.1,0.59-0.07,1.21-0.07,1.82c0,10.47,0,20.94,0,31.41
		c0,0.49,0.13,1.02-0.04,1.45c-0.24,0.62-0.61,1.55-1.06,1.64c-0.59,0.12-1.57-0.27-1.95-0.77c-1.4-1.83-2.6-3.82-3.91-5.72
		c-1.31-1.89-3.19-2.37-4.87-1.29c-1.61,1.04-2.03,2.91-0.95,4.81c3.46,6.07,6.95,12.12,10.44,18.17c0.24,0.42,0.54,0.82,0.87,1.17
		C39.69,76.43,41.82,80.1,42.3,84.83z M66.31,88.27c-8.32,0-16.45,0-24.6,0c0,1.84,0,3.56,0,5.3c8.27,0,16.4,0,24.6,0
		C66.31,91.77,66.31,90.09,66.31,88.27z"/>
	<path class="st0" d="M86.49,17.18c-1.36,0-2.65,0.31-3.81,0.86l-7.61-4.86c0.02-0.26,0.04-0.52,0.04-0.79
		c0-4.95-4.02-8.97-8.97-8.97c-3.88,0-7.19,2.48-8.43,5.94l-7.27,1.24c0-0.01-0.01-0.02-0.01-0.03c-0.6-1.43-1.47-2.71-2.57-3.81
		c-1.1-1.1-2.39-1.97-3.81-2.57c-2.96-1.25-6.38-1.25-9.35,0c-1.43,0.6-2.71,1.47-3.81,2.57c-1.1,1.1-1.97,2.39-2.57,3.81
		c-0.45,1.05-0.73,2.15-0.86,3.28l-3.14,0.58c-1.66-2.15-4.25-3.54-7.16-3.54c-4.99,0-9.05,4.06-9.05,9.05
		c0,2.34,0.9,4.47,2.37,6.08l-2.1,5.72c-2.26,1.06-3.83,3.35-3.83,6c0,3.66,2.98,6.63,6.63,6.63s6.63-2.98,6.63-6.63
		c0-3.35-2.49-6.11-5.72-6.56l1.14-3.1c1.19,0.58,2.52,0.91,3.93,0.91c4.99,0,9.05-4.06,9.05-9.05c0-0.85-0.13-1.67-0.34-2.45
		l1.68-0.31c0.15,0.93,0.4,1.85,0.77,2.73c0.6,1.43,1.47,2.71,2.57,3.82l2.33-2.33c-0.8-0.8-1.43-1.73-1.87-2.77
		c-0.45-1.07-0.68-2.21-0.68-3.39c0-1.18,0.23-2.32,0.68-3.39c0.44-1.04,1.07-1.97,1.87-2.77c0.8-0.8,1.73-1.43,2.77-1.87
		c2.15-0.91,4.63-0.91,6.78,0c1.04,0.44,1.97,1.07,2.77,1.87c0.8,0.8,1.43,1.73,1.87,2.77c0.45,1.07,0.68,2.21,0.68,3.39
		c0,1.18-0.23,2.32-0.68,3.39l3.04,1.28c0.63-1.48,0.94-3.05,0.94-4.67c0-0.48-0.04-0.96-0.09-1.44l5.92-1.01
		c0.21,4.76,4.14,8.57,8.95,8.57c3.47,0,6.49-1.99,7.98-4.88l5.73,3.66c-1.44,1.59-2.33,3.7-2.33,6.01c0,4.95,4.02,8.97,8.97,8.97
		c4.95,0,8.97-4.02,8.97-8.97C95.46,21.2,91.44,17.18,86.49,17.18z M14.51,37.74c0,1.84-1.5,3.34-3.34,3.34
		c-1.84,0-3.34-1.5-3.34-3.34c0-1.84,1.5-3.34,3.34-3.34C13.01,34.41,14.51,35.9,14.51,37.74z M17.15,25.7
		c-3.17,0-5.75-2.58-5.75-5.75c0-3.17,2.58-5.75,5.75-5.75c3.17,0,5.75,2.58,5.75,5.75C22.91,23.11,20.33,25.7,17.15,25.7z
		 M66.15,18.07c-3.13,0-5.67-2.55-5.67-5.67s2.55-5.67,5.67-5.67s5.67,2.55,5.67,5.67S69.27,18.07,66.15,18.07z M86.49,31.82
		c-3.13,0-5.67-2.55-5.67-5.67s2.55-5.67,5.67-5.67c3.13,0,5.67,2.55,5.67,5.67S89.62,31.82,86.49,31.82z"/>
</g>
</svg>
