<svg xmlns="http://www.w3.org/2000/svg" viewBox="0 0 100 100"  fill="#fff" xmlns:v="https://vecta.io/nano"><path d="M23.02 9.14l14.5 14.48-9.79 9.75 3.68 3.67 9.68-9.68 5.28 5.29-13.81 13.81L9.15 23.02l.27-.29L22.64 9.51c.11-.11.2-.25.3-.38a.22.22 0 0 0 .08.01zm2.97 12.3c0-2.54-2.07-4.62-4.61-4.62s-4.62 2.08-4.61 4.62c.01 2.52 2.06 4.58 4.59 4.6 2.53.03 4.63-2.06 4.63-4.6zm64.9 55.57L77.35 90.56c-.12.12-.22.26-.29.34L53.6 67.44l13.81-13.81 4.37 4.44-9.7 9.7 3.59 3.57 9.72-9.72 7.78 7.78-9.73 9.73 3.64 3.64 9.75-9.78.37.34 3.37 3.36c.09.09.21.17.32.25v.07zM77.45 36.42L36.76 77.07 22.94 63.24l40.67-40.65 13.84 13.83zm3.31-3.23L66.84 19.27c.04-.04.09-.12.16-.18l7.38-7.38c1.14-1.14 2.49-1.69 4.09-1.21.55.16 1.11.49 1.52.9l8.66 8.63c1.45 1.46 1.43 3.76-.07 5.34l-4.46 4.5-3.36 3.32zM20.13 65.96l13.86 14.03-23.23 9.36 9.37-23.39z"/></svg>